<svg xmlns="http://www.w3.org/2000/svg" xmlns:xlink="http://www.w3.org/1999/xlink" version="1.1" width="200" height="200" viewBox="0 0 200 200" xml:space="preserve">
<desc>Created with Fabric.js 3.5.0</desc>
<defs>
</defs>
<rect x="0" y="0" width="100%" height="100%" fill="rgba(255,255,255,0)"/>
<g transform="matrix(4.8283 0 0 4.8283 100.2377 100.0825)" id="641704">
<g style="">
		<g transform="matrix(0.3636 0 0 0.3636 11.8714 -9.5134)" id="191833">
<path style="stroke: none; stroke-width: 1; stroke-dasharray: none; stroke-linecap: butt; stroke-dashoffset: 0; stroke-linejoin: miter; stroke-miterlimit: 4; is-custom-font: none; font-file-url: none; fill: rgb(255,108,55); fill-rule: nonzero; opacity: 1;" transform=" translate(-89.2376, -30.3412)" d="M 88.9701 28.3455 C 88.8926 28.3833 88.8234 28.436 88.7663 28.5006 C 88.7093 28.5651 88.6656 28.6403 88.6377 28.7218 C 88.6099 28.8033 88.5984 28.8895 88.604 28.9754 C 88.6096 29.0614 88.6321 29.1453 88.6703 29.2225 C 88.8405 29.5623 88.908 29.9441 88.8646 30.3215 C 88.8212 30.6989 88.6688 31.0555 88.4259 31.3479 C 88.3213 31.4821 88.2732 31.6517 88.2917 31.8208 C 88.3103 31.9898 88.3941 32.145 88.5253 32.2534 C 88.6565 32.3618 88.8249 32.415 88.9947 32.4016 C 89.1645 32.3882 89.3224 32.3093 89.4349 32.1816 C 89.8396 31.6939 90.0937 31.0992 90.1661 30.4699 C 90.2385 29.8407 90.1261 29.204 89.8427 28.6373 C 89.7648 28.4839 89.6297 28.3673 89.4664 28.3127 C 89.3031 28.2581 89.1248 28.2698 88.9701 28.3455 Z" stroke-linecap="round"/>
</g>
		<g transform="matrix(0.3636 0 0 0.3636 -0.0021 -0.0021)" id="93664">
<path style="stroke: none; stroke-width: 1; stroke-dasharray: none; stroke-linecap: butt; stroke-dashoffset: 0; stroke-linejoin: miter; stroke-miterlimit: 4; is-custom-font: none; font-file-url: none; fill: rgb(255,108,55); fill-rule: nonzero; opacity: 1;" transform=" translate(-56.5913, -56.5028)" d="M 63.7963 0.464959 C 32.7976 -3.50292 4.4422 18.3631 0.466174 49.3173 C -3.50985 80.2716 18.3868 108.569 49.3869 112.54 C 80.387 116.511 108.744 94.6449 112.717 63.6996 C 116.69 32.7543 94.7949 4.43883 63.7963 0.464959 Z M 75.4485 35.7104 C 74.3986 35.7252 73.396 36.1484 72.6539 36.8898 L 51.6553 57.8488 L 47.1785 53.3765 C 67.8652 32.7738 71.5954 32.5762 75.4485 35.7104 Z M 52.5099 58.5972 L 73.4485 37.6891 C 73.9963 37.1435 74.7384 36.8372 75.5122 36.8372 C 76.286 36.8372 77.0281 37.1435 77.5759 37.6891 C 77.8581 37.9709 78.0793 38.3075 78.226 38.6781 C 78.3727 39.0487 78.4417 39.4453 78.4288 39.8436 C 78.4159 40.2418 78.3213 40.6332 78.1509 40.9935 C 77.9805 41.3538 77.7378 41.6754 77.438 41.9384 L 55.2805 61.3677 L 52.5099 58.5972 Z M 54.0676 61.8601 L 48.8802 62.9767 C 48.8187 62.9899 48.7546 62.983 48.6975 62.9568 C 48.6403 62.9307 48.5932 62.8868 48.5632 62.8317 C 48.5331 62.7766 48.5218 62.7132 48.5308 62.6511 C 48.5398 62.589 48.5688 62.5315 48.6133 62.4872 L 51.6538 59.4503 L 54.0676 61.8601 Z M 40.8456 59.7003 L 46.3749 54.1803 L 50.5189 58.3173 L 41.1845 60.3229 C 41.1064 60.3394 41.0252 60.3302 40.9527 60.2968 C 40.8803 60.2635 40.8207 60.2077 40.7826 60.1377 C 40.7445 60.0677 40.7301 59.9874 40.7414 59.9086 C 40.7528 59.8297 40.7894 59.7567 40.8456 59.7003 Z M 23.6552 88.2328 C 23.5878 88.225 23.5241 88.1983 23.4713 88.1559 C 23.4185 88.1135 23.3788 88.0571 23.3567 87.9931 C 23.3346 87.9291 23.331 87.8602 23.3464 87.7943 C 23.3619 87.7284 23.3956 87.6682 23.4438 87.6206 L 27.9041 83.1663 L 33.6657 88.9183 L 23.6552 88.2328 Z M 35.093 82.3117 C 34.8805 82.4215 34.7107 82.5988 34.6103 82.8156 C 34.5099 83.0324 34.4845 83.2763 34.5383 83.5091 L 35.4948 87.5877 C 35.5192 87.7118 35.5037 87.8405 35.4504 87.9552 C 35.397 88.07 35.3087 88.1649 35.1979 88.2264 C 35.0872 88.2879 34.9598 88.3129 34.834 88.2976 C 34.7083 88.2823 34.5905 88.2277 34.4978 88.1415 L 28.7092 82.3626 L 46.4439 64.656 L 55.0286 62.815 L 59.1486 66.9281 C 53.225 72.1038 45.132 77.2796 35.093 82.3072 V 82.3117 Z M 59.9807 66.1722 L 56.0241 62.2238 L 78.1846 42.7915 C 78.3903 42.6113 78.5772 42.4107 78.7424 42.1928 C 78.0422 48.536 69.1726 57.4776 59.9866 66.1677 L 59.9807 66.1722 Z M 77.2221 35.7478 C 75.6684 34.1826 74.7776 32.0806 74.7341 29.8775 C 74.6907 27.6744 75.4981 25.5391 76.9889 23.9141 C 78.4798 22.2891 80.5397 21.2991 82.7419 21.1493 C 84.944 20.9995 87.1195 21.7013 88.8174 23.1093 L 81.2116 30.7038 C 81.1588 30.756 81.1169 30.8181 81.0883 30.8866 C 81.0597 30.955 81.0449 31.0285 81.0449 31.1027 C 81.0449 31.1768 81.0597 31.2503 81.0883 31.3188 C 81.1169 31.3872 81.1588 31.4493 81.2116 31.5015 L 87.0917 37.3733 C 85.4843 38.1653 83.6686 38.4341 81.9002 38.1417 C 80.1318 37.8493 78.4998 37.0104 77.2341 35.7433 L 77.2221 35.7478 Z M 89.3781 35.7478 C 88.9888 36.1348 88.5625 36.4827 88.1052 36.7866 L 82.408 31.0989 L 89.6389 23.8816 C 91.134 25.512 91.9411 27.6555 91.892 29.8653 C 91.8428 32.0752 90.9412 34.1808 89.3751 35.7433 L 89.3781 35.7478 Z" stroke-linecap="round"/>
</g>
</g>
</g>
</svg>